<svg width="176" height="177" viewBox="0 0 176 177" fill="none" xmlns="http://www.w3.org/2000/svg">
<path d="M87.8093 10.9952C81.7078 11.0022 75.4963 11.8532 69.355 13.6626C66.3837 14.5346 63.5714 15.6637 60.8479 16.8957L87.8093 72.053L87.8093 72.0553L114.768 16.8957C112.045 15.6661 109.235 14.5346 106.264 13.6626C100.118 11.8532 93.9179 11.0022 87.8093 10.9952ZM78.4559 31.3314C76.0831 31.3314 74.1638 29.4051 74.1638 27.0393C74.1638 24.6665 76.0854 22.7448 78.4559 22.7448C80.8264 22.7448 82.7527 24.6688 82.7527 27.0393C82.7527 29.4075 80.8288 31.3314 78.4559 31.3314ZM85.8737 52.8319C84.1507 52.8319 82.7528 51.4315 82.7528 49.7133C82.7528 47.988 84.1507 46.59 85.8737 46.59C87.5966 46.59 88.9969 47.9903 88.9969 49.7133C88.9969 51.4315 87.5966 52.8319 85.8737 52.8319ZM93.1815 40.769C89.1442 40.769 85.8737 37.4985 85.8737 33.4588C85.8737 29.4285 89.1442 26.1556 93.1815 26.1556C97.2212 26.1556 100.492 29.4215 100.492 33.4588C100.487 37.4985 97.2165 40.769 93.1815 40.769Z" fill="white" fill-opacity="0.25"/>
<path d="M59.3688 14.314C59.3688 14.314 59.3688 14.3093 59.3688 14.314C60.1169 13.8745 71.1278 7.68173 87.8101 7.64666C104.497 7.68406 115.506 13.8745 116.251 14.3093L116.254 14.314L120.249 7.97862C119.417 7.4947 106.804 0.294393 87.8101 0.233613C68.8181 0.289721 56.2058 7.49237 55.3736 7.97863L59.3688 14.314Z" fill="white" fill-opacity="0.25"/>
<path d="M144.759 39.1824C141.182 34.2394 136.856 29.7014 131.795 25.7812C129.348 23.8825 126.787 22.2633 124.194 20.7762L95.2545 74.9221L95.2526 74.9234L155.756 64.4942C155.158 61.5663 154.431 58.6257 153.399 55.7062C151.268 49.664 148.329 44.1392 144.759 39.1824ZM122.796 43.5024C121.407 41.5786 121.846 38.8949 123.764 37.51C125.688 36.1211 128.37 36.5543 129.758 38.4763C131.145 40.3983 130.713 43.0863 128.791 44.4738C126.871 45.86 124.185 45.4263 122.796 43.5024ZM109.706 62.1017C108.697 60.7048 109.014 58.7517 110.407 57.7459C111.806 56.736 113.758 57.0512 114.767 58.4481C115.775 59.845 115.459 61.8001 114.062 62.8086C112.669 63.8143 110.714 63.4987 109.706 62.1017ZM123.764 60.9659C121.4 57.6925 122.138 53.1264 125.413 50.7618C128.681 48.4027 133.249 49.1387 135.612 52.4121C137.977 55.6874 137.243 60.2507 133.97 62.6139C130.692 64.9747 126.126 64.2374 123.764 60.9659Z" fill="white" fill-opacity="0.25"/>
<path d="M125.421 18.0657C125.421 18.0657 125.424 18.063 125.421 18.0657C126.215 18.415 137.681 23.7176 147.474 37.2228C157.212 50.7742 158.636 63.3233 158.72 64.1825L158.718 64.1871L166.193 63.718C166.098 62.76 164.554 48.3195 153.485 32.8836C142.322 17.518 129.1 11.5082 128.219 11.1181L125.421 18.0657Z" fill="white" fill-opacity="0.25"/>
<path d="M31.5143 39.1822C35.0914 34.2393 39.4172 29.7012 44.479 25.7811C46.9253 23.8824 49.4869 22.2631 52.08 20.7761L81.019 74.9219L81.0209 74.9233L20.518 64.4941C21.1152 61.5662 21.8426 58.6256 22.8748 55.7061C25.0053 49.6639 27.9443 44.1391 31.5143 39.1822ZM53.4775 43.5023C54.8664 41.5784 54.4281 38.8947 52.5099 37.5099C50.586 36.121 47.9032 36.5542 46.5156 38.4762C45.1281 40.3982 45.5604 43.0862 47.4824 44.4737C49.4025 45.8599 52.0886 45.4262 53.4775 43.5023ZM66.5678 62.1016C67.5764 60.7047 67.2593 58.7515 65.8662 57.7458C64.4673 56.7359 62.5156 57.0511 61.5071 58.448C60.4985 59.8449 60.8142 61.7999 62.2112 62.8085C63.6043 63.8142 65.5593 63.4985 66.5678 62.1016ZM52.5098 60.9658C54.8731 57.6924 54.1357 53.1263 50.8604 50.7617C47.5927 48.4026 43.0247 49.1386 40.6615 52.412C38.2969 55.6873 39.0305 60.2506 42.3039 62.6138C45.5819 64.9746 50.148 64.2373 52.5098 60.9658Z" fill="white" fill-opacity="0.25"/>
<path d="M50.8524 18.0654C50.8524 18.0654 50.8486 18.0627 50.8524 18.0654C50.0582 18.4147 38.592 23.7173 28.7987 37.2225C19.0615 50.774 17.6368 63.3231 17.5528 64.1822L17.5553 64.1869L10.0801 63.7178C10.1749 62.7598 11.7194 48.3193 22.7883 32.8834C33.9507 17.5178 47.173 11.508 48.0544 11.1178L50.8524 18.0654Z" fill="white" fill-opacity="0.25"/>
<path d="M20.4296 110.195C18.7198 104.338 17.7888 98.1382 17.7974 91.7359C17.7982 88.6393 18.0905 85.6229 18.5066 82.6628L79.0212 93.0174L79.0234 93.0168L33.6764 134.405C31.7302 132.138 29.8539 129.76 28.1812 127.154C24.7157 121.765 22.1549 116.055 20.4296 110.195ZM37.313 95.4983C36.6454 93.2213 34.2569 91.9215 31.9867 92.5871C29.7097 93.2547 28.4063 95.6393 29.0732 97.9141C29.7401 100.189 32.1283 101.496 34.4031 100.829C36.6756 100.163 37.9806 97.7753 37.313 95.4983ZM60.0319 96.5676C59.5471 94.9142 57.8101 93.9667 56.1612 94.4501C54.5056 94.9355 53.5574 96.6703 54.0422 98.3236C54.5269 99.977 56.2646 100.927 57.9179 100.442C59.5668 99.9586 60.5166 98.2209 60.0319 96.5676ZM50.5122 106.974C49.3764 103.1 45.3178 100.881 41.4413 102.018C37.5738 103.152 35.3532 107.211 36.4891 111.085C37.6256 114.962 41.6797 117.181 45.5539 116.046C49.4291 114.905 51.6474 110.846 50.5122 106.974Z" fill="white" fill-opacity="0.25"/>
<path d="M15.6123 81.9698C15.6123 81.9698 15.6078 81.9711 15.6123 81.9698C15.401 82.8113 12.5561 95.1197 17.2158 111.138C21.9464 127.14 30.9839 135.963 31.611 136.556L31.6161 136.557L26.6607 142.173C25.9621 141.511 15.5044 131.434 10.1022 113.224C4.8129 94.9829 8.17633 80.8538 8.40881 79.9183L15.6123 81.9698Z" fill="white" fill-opacity="0.25"/>
<path d="M155.302 110.195C157.012 104.338 157.943 98.1381 157.934 91.7358C157.933 88.6392 157.641 85.6228 157.225 82.6627L96.7105 93.0173L96.7083 93.0167L142.055 134.405C144.001 132.138 145.878 129.76 147.551 127.154C151.016 121.765 153.577 116.055 155.302 110.195ZM138.419 95.4982C139.086 93.2212 141.475 91.9214 143.745 92.587C146.022 93.2545 147.325 95.6392 146.658 97.9139C145.992 100.189 143.603 101.496 141.329 100.829C139.056 100.163 137.751 97.7752 138.419 95.4982ZM115.7 96.5674C116.185 94.9141 117.922 93.9665 119.57 94.45C121.226 94.9353 122.174 96.6702 121.69 98.3235C121.205 99.9768 119.467 100.927 117.814 100.442C116.165 99.9585 115.215 98.2208 115.7 96.5674ZM125.219 106.974C126.355 103.1 130.414 100.881 134.29 102.018C138.158 103.152 140.378 107.211 139.243 111.085C138.106 114.962 134.052 117.181 130.178 116.045C126.303 114.904 124.084 110.846 125.219 106.974Z" fill="white" fill-opacity="0.25"/>
<path d="M160.119 81.9695C160.119 81.9695 160.124 81.9708 160.119 81.9695C160.331 82.811 163.175 95.1193 158.516 111.138C153.785 127.14 144.748 135.962 144.121 136.556L144.115 136.557L149.071 142.173C149.769 141.51 160.227 131.433 165.629 113.223C170.919 94.9826 167.555 80.8534 167.323 79.918L160.119 81.9695Z" fill="white" fill-opacity="0.25"/>
<path d="M99.4191 161.605C98.0425 160.018 96.6425 158.432 95.2191 156.845C93.8191 155.235 92.4308 153.648 91.0541 152.085L76.6691 135.705C74.9891 133.768 73.6591 131.82 72.6791 129.86C71.6991 127.877 71.2091 125.765 71.2091 123.525C71.2091 120.608 71.9675 118.193 73.4841 116.28C75.0008 114.367 77.0308 112.943 79.5741 112.01C82.1408 111.053 84.9758 110.575 88.0791 110.575C91.2058 110.575 93.9358 111.042 96.2691 111.975C98.6258 112.885 100.446 114.215 101.729 115.965C103.036 117.715 103.689 119.838 103.689 122.335C103.689 124.178 103.351 125.788 102.674 127.165C102.021 128.518 101.169 129.708 100.119 130.735C99.0691 131.738 97.9491 132.613 96.7591 133.36C95.5691 134.083 94.4491 134.725 93.3991 135.285L87.7991 129.055C88.6158 128.518 89.3041 127.935 89.8641 127.305C90.4241 126.652 90.8441 125.975 91.1241 125.275C91.4275 124.552 91.5791 123.828 91.5791 123.105C91.5791 122.195 91.3341 121.413 90.8441 120.76C90.3541 120.083 89.6891 119.745 88.8491 119.745C88.0558 119.745 87.3675 120.025 86.7841 120.585C86.2008 121.122 85.9091 121.915 85.9091 122.965C85.9091 124.015 86.1891 124.995 86.7491 125.905C87.3091 126.792 88.1491 127.865 89.2691 129.125L102.779 144.385C105.322 147.255 107.866 150.125 110.409 152.995C112.952 155.865 115.496 158.735 118.039 161.605H99.4191ZM79.7491 162.585C76.1791 162.585 73.2041 161.978 70.8241 160.765C68.4441 159.552 66.6475 157.895 65.4341 155.795C64.2441 153.672 63.6491 151.268 63.6491 148.585C63.6491 145.878 64.1741 143.522 65.2241 141.515C66.2741 139.508 67.6858 137.793 69.4591 136.37C71.2325 134.923 73.1925 133.722 75.3391 132.765L81.7091 140.535C80.9858 141.072 80.4025 141.655 79.9591 142.285C79.5158 142.892 79.1891 143.51 78.9791 144.14C78.7925 144.77 78.6991 145.388 78.6991 145.995C78.6991 146.858 78.8858 147.652 79.2591 148.375C79.6325 149.098 80.1808 149.682 80.9041 150.125C81.6508 150.545 82.5725 150.755 83.6691 150.755C84.3691 150.755 85.0575 150.673 85.7341 150.51C86.4108 150.323 87.0408 150.067 87.6241 149.74C88.2075 149.413 88.7091 149.028 89.1291 148.585L95.3591 155.025L95.2891 156.495H94.1691C93.0725 157.755 91.8125 158.84 90.3891 159.75C88.9891 160.66 87.4025 161.36 85.6291 161.85C83.8791 162.34 81.9191 162.585 79.7491 162.585ZM105.089 150.055L96.8991 141.795C98.1591 139.835 99.4075 137.887 100.644 135.95C101.904 134.013 103.152 132.088 104.389 130.175L116.569 138.085C114.656 140.068 112.742 142.063 110.829 144.07C108.939 146.053 107.026 148.048 105.089 150.055Z" fill="#828282"/>
</svg>
